<mxfile host="app.diagrams.net" modified="2023-11-03T08:55:26.283Z" agent="Mozilla/5.0 (Windows NT 10.0; Win64; x64) AppleWebKit/537.36 (KHTML, like Gecko) Chrome/118.0.0.0 Safari/537.36" etag="ZWgzvXbcab0wsx1DmUd1" version="21.7.5" type="github">
  <diagram name="第 1 页" id="MdhUCCAxx1nB4XfeSFi4">
    <mxGraphModel dx="1434" dy="756" grid="1" gridSize="10" guides="1" tooltips="1" connect="1" arrows="1" fold="1" page="1" pageScale="1" pageWidth="827" pageHeight="1169" background="none" math="0" shadow="0">
      <root>
        <mxCell id="0" />
        <mxCell id="1" parent="0" />
        <mxCell id="OmUYgshhoTAGMO6bazsE-1" value="" style="edgeStyle=orthogonalEdgeStyle;rounded=0;orthogonalLoop=1;jettySize=auto;html=1;" edge="1" parent="1" source="OmUYgshhoTAGMO6bazsE-2" target="OmUYgshhoTAGMO6bazsE-3">
          <mxGeometry relative="1" as="geometry" />
        </mxCell>
        <mxCell id="OmUYgshhoTAGMO6bazsE-2" value="自我介绍" style="rounded=1;whiteSpace=wrap;html=1;" vertex="1" parent="1">
          <mxGeometry x="220" y="260" width="120" height="60" as="geometry" />
        </mxCell>
        <mxCell id="OmUYgshhoTAGMO6bazsE-3" value="Actions" style="rounded=1;whiteSpace=wrap;html=1;" vertex="1" parent="1">
          <mxGeometry x="413" y="260" width="120" height="60" as="geometry" />
        </mxCell>
        <mxCell id="OmUYgshhoTAGMO6bazsE-4" value="" style="strokeWidth=2;html=1;shape=mxgraph.flowchart.annotation_2;align=left;labelPosition=right;pointerEvents=1;" vertex="1" parent="1">
          <mxGeometry x="533" y="240" width="50" height="100" as="geometry" />
        </mxCell>
        <mxCell id="OmUYgshhoTAGMO6bazsE-7" value="提示指令" style="text;html=1;strokeColor=none;fillColor=none;align=center;verticalAlign=middle;whiteSpace=wrap;rounded=0;" vertex="1" parent="1">
          <mxGeometry x="540" y="320" width="145" height="30" as="geometry" />
        </mxCell>
        <mxCell id="OmUYgshhoTAGMO6bazsE-9" value="显示：我叫小卓，是你的 LinkWall 智能助手，很高兴遇见你，我的使命是协助你更好的使用 LinkWall，有什么需要就喊我吧。" style="text;html=1;strokeColor=none;fillColor=none;align=center;verticalAlign=middle;whiteSpace=wrap;rounded=0;" vertex="1" parent="1">
          <mxGeometry x="583" y="230" width="267" height="40" as="geometry" />
        </mxCell>
        <mxCell id="OmUYgshhoTAGMO6bazsE-10" value="播报：我叫小卓，是你的 LinkWall 智能助手，很高兴遇见你，我的使命是协助你更好的使用 LinkWall，有什么需要就喊我吧。" style="text;html=1;strokeColor=none;fillColor=none;align=center;verticalAlign=middle;whiteSpace=wrap;rounded=0;" vertex="1" parent="1">
          <mxGeometry x="583" y="280" width="267" height="40" as="geometry" />
        </mxCell>
      </root>
    </mxGraphModel>
  </diagram>
</mxfile>
